<svg width="136" height="135" viewBox="0 0 136 135" fill="none" xmlns="http://www.w3.org/2000/svg">
<g clip-path="url(#clip0_3426_8236)">
<path d="M26.6293 80.8883C31.8652 77.6179 39.7422 72.5336 41.0278 66.319C41.7482 62.3783 42.3451 57.4682 43.2885 53.5473C44.2237 49.6633 46.0263 45.9758 48.4798 42.7701C55.913 32.899 69.0539 28.6444 81.1479 31.5697C92.8761 34.2573 102.667 43.5479 105.248 55.0871C106.165 58.8827 106.227 62.8896 105.586 66.7505L103.792 78.0205C103.328 81.5704 103.959 85.2084 105.503 88.4068C106.291 90.0006 107.289 91.4889 108.482 92.8222C109.682 94.169 111.548 96.0725 112.223 97.7817C116.38 106.79 108.124 116.519 98.251 114.652C78.7368 109.867 59.3085 104.746 39.9969 99.2296C37.2381 98.4357 34.478 97.6469 31.7294 96.8136L31.8112 96.4946C34.639 97.019 37.4554 97.5881 40.2732 98.152C59.9778 102.135 79.5946 106.521 99.1252 111.243C106.934 112.554 113.401 103.818 107.965 96.9779L106.105 94.8093C102.033 90.1356 100.149 83.6973 101.272 77.6523C102.628 70.2176 105.511 62.9385 103.97 55.3436C98.8849 30.511 66.1807 25.2064 50.8494 44.5156C47.2827 48.9079 45.6384 54.2142 44.6739 59.7047C44.4251 60.7602 43.3734 65.7674 43.1556 66.7042C42.3455 70.1921 39.6485 73.016 36.9181 75.1977C33.8032 77.6505 30.3581 79.578 26.7878 81.1786L26.6293 80.8883L26.6293 80.8883Z" fill="#121224"/>
<path d="M66.2596 90.2334C78.4875 92.9525 89.2137 96.7417 96.6672 100.651C100.4 102.609 103.265 104.572 105.089 106.412C106.948 108.288 107.535 109.832 107.259 111.013C106.982 112.193 105.766 113.336 103.256 114.241C100.793 115.127 97.3382 115.686 93.1035 115.872C84.6477 116.243 73.2965 115.123 61.0686 112.404C48.8407 109.685 38.1144 105.896 30.6609 101.986C26.9282 100.029 24.0634 98.0652 22.2394 96.2252C20.3798 94.3493 19.7932 92.8051 20.0696 91.6248C20.346 90.4445 21.5618 89.301 24.0724 88.3968C26.5348 87.51 29.99 86.9518 34.2247 86.7658C42.6805 86.3943 54.0317 87.5144 66.2596 90.2334Z" fill="#121224" stroke="white" stroke-width="1.81333"/>
<path d="M93.1011 18.14C93.3217 27.0579 84.4619 31.1948 78.1448 24.3273C75.7711 21.7974 74.3279 17.9565 75.4494 14.4867C76.6538 10.8071 80.467 8.06854 84.495 8.1625C90.1589 8.17562 93.2661 13.0841 93.1011 18.14V18.14ZM92.7636 18.14C92.5862 12.1955 83.8928 9.7449 79.6598 13.4266C75.6485 16.7286 75.9127 23.6341 81.6236 24.8967C86.0609 25.6389 92.7176 23.2993 92.7636 18.14V18.14Z" fill="#121224"/>
<path d="M9.23452 106.228C5.95573 106.163 3.13676 103.591 1.73451 100.813C-2.45143 92.5302 1.16643 80.2556 10.1553 76.6626C8.02475 78.8451 6.54744 81.2781 5.45415 83.8417C2.57186 90.7346 1.56089 101.89 9.23453 106.228L9.23452 106.228Z" fill="#121224"/>
<path d="M130.265 96.3828C138.47 102.872 132.338 117.125 125.223 122.288C124.073 123.119 122.833 123.859 121.472 124.266C123.385 122.256 124.845 120.12 126.166 117.897C129.672 111.538 133.627 103.547 130.265 96.3828V96.3828Z" fill="#121224"/>
<path d="M77.4097 112.127C76.9799 121.339 66.8259 127.805 57.7962 125.59C48.6734 123.778 42.3923 113.646 46.1166 105.168C45.5973 113.102 50.7708 120.51 58.5896 122.202C66.3862 123.991 74.3541 119.499 77.4097 112.127V112.127Z" fill="#121224"/>
<g clip-path="url(#clip1_3426_8236)">
<path d="M63.6636 47.3867C60.3922 50.7531 58.0699 54.5356 57.0109 59.1123C56.363 61.4199 56.5568 63.7444 55.9578 66.1004C55.3597 68.5591 54.3002 70.8587 52.7836 72.7734C53.2701 70.351 53.7078 68.0438 53.8463 65.7477C54.0061 63.3638 53.7002 60.7776 54.3745 58.4218C55.4961 53.5217 58.9893 48.9438 63.6636 47.3867Z" fill="#121224"/>
</g>
<circle cx="62.1123" cy="107.959" r="15.2168" fill="#F05537"/>
<circle cx="67.4838" cy="104.379" r="6.26573" fill="#F2F2F2"/>
</g>
<defs>
<clipPath id="clip0_3426_8236">
<rect width="134.187" height="117.867" fill="white" transform="translate(0.000183105 8.16016)"/>
</clipPath>
<clipPath id="clip1_3426_8236">
<rect width="10.88" height="25.3867" fill="white" transform="translate(52.7836 47.3867)"/>
</clipPath>
</defs>
</svg>
